<?xml version="1.0" encoding="utf-8"?>
<!-- Generator: Adobe Illustrator 23.1.1, SVG Export Plug-In . SVG Version: 6.00 Build 0)  -->
<svg version="1.1" id="Ebene_1" xmlns="http://www.w3.org/2000/svg" xmlns:xlink="http://www.w3.org/1999/xlink" x="0px" y="0px"
	 viewBox="-2 -2 162 162" style="enable-background:new 0 0 157.1 157.1;" xml:space="preserve">
<style type="text/css">
	.st0{fill:#FFFFFF;}
</style>
<g id="XMLID_462_">
	<g id="XMLID_561_">
		<path id="XMLID_563_" class="st0" d="M125.3,139.9c-6.8-5.1-16.9-9-27.5-13.2c-12.7-4.9-27-10.5-37.8-19.1
			c-12.2-9.7-18.2-22-18.2-37.5c0-13.9,5.8-25.8,16.7-34.4c12.3-9.6,30.8-14.8,53.7-14.8c6.3,0,12.4,0.4,18,1.2
			c0.5,0.1,1-0.2,1.2-0.6c0.2-0.5,0.1-1-0.3-1.3C116.6,7.1,98,0,78.6,0C57.6,0,37.8,8.2,23,23C8.2,37.8,0,57.6,0,78.5
			c0,21,8.2,40.7,23,55.5c14.8,14.8,34.6,23,55.5,23c17,0,33.1-5.3,46.7-15.4c0.3-0.2,0.5-0.5,0.5-0.9
			C125.7,140.4,125.5,140.1,125.3,139.9z"/>
		<path id="XMLID_562_" class="st0" d="M156.7,71.3c0-0.3-0.2-0.6-0.4-0.8c-16.4-13.6-29.6-19.2-45.8-19.2c-8.6,0-15.2,1.7-19.6,5.1
			c-3.8,2.9-5.8,7.1-5.8,11.9c0,13.5,16.5,19.6,35.6,26.8c9.8,3.7,20,7.5,29.3,12.6c0.2,0.1,0.4,0.1,0.5,0.1c0.1,0,0.3,0,0.4-0.1
			c0.3-0.1,0.6-0.3,0.7-0.7c3.6-9.1,5.4-18.8,5.4-28.6C157.1,76.2,157,73.8,156.7,71.3z"/>
	</g>
</g>
</svg>
