<?xml version="1.0" encoding="utf-8"?>
<!-- Generator: Adobe Illustrator 27.4.1, SVG Export Plug-In . SVG Version: 6.00 Build 0)  -->
<svg version="1.1" id="Layer_1" xmlns="http://www.w3.org/2000/svg" xmlns:xlink="http://www.w3.org/1999/xlink" x="0px" y="0px"
	 viewBox="0 0 1920 768" style="enable-background:new 0 0 1920 768;" xml:space="preserve">
<style type="text/css">
	.st0{opacity:0.5;}
	.st1{fill:#FFFFFF;}
</style>
<g class="st0">
	<g>
		<path class="st1" d="M0,0v768h1920V0H0z M1051.4,507.6c-26.6,19.7-58.2,30.1-91.4,30.1c-41.1,0-79.7-16-108.7-45
			c-29-29-45-67.6-45-108.7c0-41,16-79.6,45-108.7c29-29,67.6-45,108.7-45c38,0,74.4,14,102.7,39.3c0.7,0.7,0.9,1.7,0.5,2.6
			c-0.4,0.9-1.3,1.4-2.3,1.3c-11-1.5-22.8-2.3-35.1-2.3c-44.8,0-81.1,10-105.1,28.9c-21.4,16.8-32.7,40.1-32.7,67.4
			c0,30.4,11.6,54.4,35.5,73.4c21.1,16.8,49.2,27.7,74,37.3c20.8,8.1,40.5,15.7,53.9,25.8c0.6,0.4,0.9,1.1,0.9,1.8
			C1052.3,506.5,1052,507.2,1051.4,507.6z M1103.2,440c-0.2,0.6-0.7,1.1-1.3,1.3c-0.2,0.1-0.5,0.1-0.7,0.1c-0.4,0-0.7-0.1-1.1-0.3
			c-18.3-10.1-38.2-17.6-57.4-24.7c-37.4-13.9-69.6-26-69.6-52.4c0-9.4,3.9-17.4,11.4-23.2c8.6-6.7,21.5-10,38.3-10
			c31.5,0,57.5,10.9,89.5,37.5c0.5,0.4,0.7,0.9,0.8,1.5c0.4,4.9,0.6,9.7,0.6,14.2C1113.7,403.3,1110.1,422.1,1103.2,440z"/>
	</g>
</g>
</svg>
