<?xml version="1.0" encoding="utf-8"?>
<!-- Generator: Adobe Illustrator 27.3.1, SVG Export Plug-In . SVG Version: 6.00 Build 0)  -->
<svg version="1.1" id="Layer_1" xmlns="http://www.w3.org/2000/svg" xmlns:xlink="http://www.w3.org/1999/xlink" x="0px" y="0px"
	 viewBox="0 0 876.5 114" style="enable-background:new 0 0 876.5 114;" xml:space="preserve">
<style type="text/css">
	.st0{fill:#231F20;}
</style>
<g>
	<path class="st0" d="M165.5,57.4c-4.7-2-8.5-3.9-8.5-6.9c0-2.1,2.4-4.2,6.5-4.2c3.5,0.1,6.9,0.9,10.1,2.3c1.1,0.6,2.4,0.2,3-0.8
		c0,0,0-0.1,0-0.1l1.6-3.3c0.6-1.2,0.1-2.7-1-3.5c-4.2-2.4-8.9-3.6-13.7-3.5c-11.4,0-16.1,6.9-16.1,12.8c0,7.7,6,11.6,13.2,14.9
		c6.5,3,10.1,5,10.1,8.1c0,2.7-2.2,4.6-6.2,4.6c-5.6,0-8.9-1.9-11.7-3.5c-0.9-0.7-2.2-0.5-2.9,0.4c0,0.1-0.1,0.1-0.1,0.2l-2.1,4.4
		c-0.4,0.9,0,2,0.8,2.4c4.5,3.1,9.9,4.8,15.4,4.8c10.5,0,16.8-6.4,16.8-13.7C180.6,64.2,174.1,61.1,165.5,57.4L165.5,57.4z"/>
	<path class="st0" d="M103.1,99.9c-4.8-3.6-11.8-6.3-19.3-9.2c-8.9-3.4-18.9-7.3-26.5-13.4C48.7,70.5,44.6,61.9,44.6,51
		c-0.1-9.4,4.2-18.4,11.7-24.1c8.6-6.8,21.6-10.3,37.6-10.3c4.2,0,8.4,0.3,12.6,0.8c0.4,0.1,0.8-0.3,0.9-0.7c0-0.3-0.1-0.5-0.3-0.7
		C84.5-4.3,49.7-2.4,29.5,20.2s-18.4,57.4,4.2,77.7c19.4,17.4,48.5,18.8,69.5,3.3c0.2-0.1,0.3-0.4,0.3-0.6
		C103.4,100.3,103.3,100,103.1,99.9z"/>
	<path class="st0" d="M125.2,51.8c0-0.2-0.1-0.4-0.3-0.5c-11.5-9.5-20.8-13.4-32-13.4c-6,0-10.6,1.2-13.7,3.6
		c-2.6,1.9-4.2,5-4.1,8.3c0,9.4,11.6,13.8,24.9,18.7c6.9,2.6,14,5.2,20.6,8.9c0.1,0.1,0.3,0.1,0.4,0.1c0.1,0,0.2,0,0.3,0
		c0.2-0.1,0.4-0.2,0.5-0.4c2.5-6.4,3.8-13.2,3.8-20C125.4,55.3,125.3,53.6,125.2,51.8z"/>
	<path class="st0" d="M441.3,86.1c1.3-0.1,2.3-1.1,2.4-2.5V59.8c0-12.2-1.5-21.7-17.2-21.7c-5.7,0-11.4,0.9-16.9,2.8
		c-1.2,0.3-1.9,1.5-1.7,2.7c0,0.1,0,0.1,0.1,0.2l1,4c0.3,1.4,1.3,2.3,2.8,2c4.4-1.4,9-2.2,13.7-2.3c6.2,0,8.1,3.5,7.9,11.2
		c-3.2-0.9-6.5-1.4-9.9-1.5c-12.6,0-19.6,6.8-19.6,15.8c0,10.2,6.5,13.6,15.7,13.6c7.5,0,15.3-0.1,18.5-0.3L441.3,86.1z M433.1,77.5
		c-1.5,2.4-6.8,1.8-11.4,1.7c-5.1-0.1-7.6-1.9-7.6-6.2c0-5.1,4.4-8.1,10.1-8.1c3.1-0.1,6.1,0.5,8.9,1.7V77.5z"/>
	<path class="st0" d="M521.4,37.6c3.1,0,5.6-2.5,5.6-5.6s-2.5-5.6-5.6-5.6c-3.1,0-5.5,2.5-5.6,5.5C515.8,35.1,518.3,37.6,521.4,37.6
		C521.4,37.6,521.4,37.6,521.4,37.6z M521.4,27.3c2.6,0,4.8,2.1,4.8,4.7c0,2.6-2.1,4.8-4.7,4.8c-2.6,0-4.8-2.1-4.8-4.7
		c0,0,0-0.1,0-0.1C516.8,29.4,518.8,27.3,521.4,27.3z"/>
	<path class="st0" d="M519.5,34.9h0.5c0.1,0,0.2-0.1,0.2-0.1c0,0,0,0,0,0v-2h1.2l1,2.1c0,0.1,0.1,0.1,0.2,0.1h0.6
		c0.1,0,0.2-0.1,0.2-0.1c0,0,0-0.1,0-0.1l-1.1-2c0.7-0.2,1.1-0.9,1.2-1.6c0-1-0.8-1.7-1.8-1.7c0,0,0,0,0,0h-2.2
		c-0.1,0-0.2,0.1-0.2,0.1v5.3C519.4,34.8,519.5,34.9,519.5,34.9z M520.2,30h1.4c0.5,0,1,0.4,1,1c0,0.6-0.4,1-1,1h-1.4V30z"/>
	<path class="st0" d="M211.9,37.6c-5,0.1-9.7,1.8-13.6,4.9v-21c-0.1-1.2-1-2.1-2.2-2.2h-5.7c-1.2,0-2.2,1-2.2,2.2v63
		c0,1.2,1,2.2,2.2,2.2h5.6c1.2,0.1,2.2-0.8,2.3-2c0-0.1,0-0.2,0-0.3V54.1c2.6-4.3,7.3-6.9,12.3-6.8c6.1,0,9.4,4.6,9.4,12.3v24.9
		c0,1.2,1,2.2,2.2,2.2h5.7c1.2,0,2.2-1,2.2-2.2V59.8C230.1,47,225.2,37.6,211.9,37.6L211.9,37.6z"/>
	<path class="st0" d="M331,60.3c-0.6-16-7.2-22.7-22.7-22.7c-5.9,0.1-11.8,1.1-17.5,2.8c-1.6,0.7-2.8,1.5-2.8,2.6v59.8
		c0,1.2,1,2.2,2.2,2.2h4.7c1.2,0.1,2.3-0.7,2.4-1.9c0-0.1,0-0.2,0-0.3V85.9c4.9,0.7,9.9,1,14.8,0.8c10.9-0.3,18.2-8.2,18.8-21.6
		C331.1,63.3,331,60.3,331,60.3z M321.2,65.1c-0.2,9-2.8,13-10.5,13.5c-3.8,0.2-12.7-0.8-12.7-0.8c-0.4-0.1-0.6-0.3-0.6-0.6V48.4
		c0-0.3,0.2-0.5,0.5-0.5c3.4-0.8,6.9-1.3,10.4-1.3c9.3,0,12.5,1.4,12.9,13.1C321.2,61.2,321.2,63.4,321.2,65.1L321.2,65.1z"/>
	<path class="st0" d="M398.3,38.6h-4.3c-1.2,0-3,0-3.6,1.4l-7.5,27h-0.2l-12.6-28.4c-0.4-0.8-1.2-1.2-2-1.1h-0.7
		c-0.8,0-1.5,0.4-1.9,1.1L352.8,67h-0.2l-7.7-27c-0.3-0.9-1.1-1.4-2-1.4h-6.1c-0.9-0.1-1.8,0.5-1.9,1.4c-0.1,0.4,0,0.9,0.3,1.2
		l13.7,44.2c0.3,0.8,1.1,1.3,1.9,1.2h0.6c0.8,0.1,1.5-0.4,1.8-1.1l14.4-31.9h0.2l14.3,31.9c0.4,0.7,1.2,1.1,2,1.1h0.4
		c0.9,0.1,1.8-0.4,2.1-1.2l13.4-44.2C400.9,39.8,400,38.6,398.3,38.6L398.3,38.6z"/>
	<path class="st0" d="M473.4,38.2h-0.7h-1.2c-2.4,0-4.8,0.1-7,0.2c-4.2,0.2-6.7,0.5-8.5,0.7c0,0-1.1,0.1-2.5,0.3
		c-0.8,0.1-1.4,0.4-1.9,1c-0.3,0.3-0.4,0.7-0.4,1.1v43.1c0,1.2,1,2.2,2.2,2.2h4.7c1.9,0,3.3-0.2,3.3-2.2V55.4v-6.7
		c0-0.3,0.4-0.6,0.7-0.8c1.1-0.7,3.9-1.2,9.5-1.2h1.3c1.3,0.1,2.7,0.4,3.9,0.9c1,0.5,2.2,0.2,2.7-0.8c0.1-0.1,0.1-0.2,0.1-0.3l2.4-4
		C483.4,39.4,477.8,38.2,473.4,38.2L473.4,38.2z"/>
	<path class="st0" d="M505.5,37.6c-14.1,0-23.4,11.3-23.4,24.5c0,13.4,9.2,24.6,23.5,24.6c7.8,0,14-2.8,17.4-5.8
		c1.4-1.2,1-2.1,0.2-3.2l-2.8-4.3c-0.8-1.2-1.7-0.9-2.7-0.2c-3.3,2.6-7.3,4-11.5,4c-8.2,0-13.9-6.5-14-12.8h32.4c1.1,0,2-0.9,2.1-2
		c0.1-0.8,0.2-2.4,0.2-3.3C527,46.7,517.8,37.6,505.5,37.6L505.5,37.6z M492.7,56.9c0.7-5.9,5.2-10.7,12.6-10.7
		c6.9,0,11.4,5,11.6,10.7H492.7z"/>
	<path class="st0" d="M279.9,52.1c-1-2.9-2.5-5.5-4.5-7.8c-1.9-2.1-4.2-3.9-6.9-5c-6.1-2.3-12.9-2.3-19,0c-2.6,1.1-5,2.9-6.9,5
		c-2,2.3-3.5,4.9-4.5,7.8c-1.1,3.2-1.6,6.6-1.6,10c0,3.4,0.5,6.8,1.6,10.1c1,2.9,2.5,5.5,4.4,7.8c1.9,2.1,4.2,3.9,6.9,5
		c6.1,2.3,12.9,2.3,19,0c2.6-1.1,5-2.9,6.9-5c2-2.3,3.5-4.9,4.5-7.7c1.1-3.2,1.6-6.7,1.6-10.1C281.5,58.8,281,55.4,279.9,52.1z
		 M258.8,78.6c-8.5,0-12.8-7.2-12.8-16s4.3-16,12.8-16c8.5,0,12.8,7.2,12.8,16S267.3,78.6,258.8,78.6z"/>
	<path class="st0" d="M554.8,72.9c0-11.1,7.2-20,16.9-20c2.7,0,5.3,0.8,7.6,2.1l2.4-16.9c0.2-0.9,0.7-1.6,1.6-1.6h2.5
		c0.7,0.1,1.3,0.7,1.3,1.5c0,0,0,0,0,0.1l-6.6,47.4c-0.1,0.7-0.8,1.3-1.5,1.2h-1.7c-0.7,0-1-0.5-1.1-1.2l-0.3-2.1
		c-0.1,0-4,4.1-9.9,4.1C559.4,87.5,554.8,80.9,554.8,72.9z M576.2,77.1l2.3-17.4c-2-1.4-4.4-2.1-6.9-2.1c-6.2,0-11.4,6.8-11.4,14.7
		c0,5.3,2.4,10.5,7.2,10.5S576.2,77.1,576.2,77.1z"/>
	<path class="st0" d="M609.1,52.9c5.9,0,10,3.6,10,8.6c0,6.4-6.4,10.8-17.9,10.8c-1.4,0-2.9-0.1-4.6-0.2c-0.4,5.5,2.6,10.8,8.2,10.8
		c3.2,0,5.4-1.6,7.2-3c0.8-0.6,1.4-0.5,2.1,0.4l0.9,1.4c0.4,0.6,0.6,1.2-0.5,2c-2.9,2.3-6.5,3.7-10.3,3.8c-7.7,0-12.5-6.7-12.5-14.6
		C591.8,62.1,598.7,52.9,609.1,52.9L609.1,52.9z M601.8,67.9c7.8,0,12.1-2.3,12.1-6.2c0-2.2-1.9-4.2-5.2-4.2
		c-5.5,0-10.5,5-11.5,10.2C598.8,67.9,600.4,67.9,601.8,67.9L601.8,67.9z"/>
	<path class="st0" d="M625.1,55.1c-0.4-1.1,0.2-1.5,1.2-1.5h2.5c0.9,0,1.2,0.5,1.4,1.2l5.7,23.2h0.2l12.5-23.5c0.3-0.6,1-1,1.7-0.9
		h2.3c1.2,0,1.6,0.9,0.9,1.9l-17,31.2c-0.2,0.5-0.8,0.9-1.4,0.9h-0.4c-0.5,0-1-0.3-1.2-0.9L625.1,55.1z"/>
	<path class="st0" d="M673.6,52.9c5.9,0,10,3.6,10,8.6c0,6.4-6.4,10.8-17.9,10.8c-1.4,0-2.9-0.1-4.6-0.2c-0.4,5.5,2.6,10.8,8.2,10.8
		c3.2,0,5.4-1.6,7.2-3c0.8-0.6,1.4-0.5,2.1,0.4l0.9,1.4c0.4,0.6,0.7,1.2-0.5,2c-2.9,2.3-6.5,3.7-10.3,3.8c-7.7,0-12.5-6.7-12.5-14.6
		C656.3,62.1,663.3,52.9,673.6,52.9z M666.3,67.9c7.8,0,12.1-2.3,12.1-6.2c0-2.2-1.9-4.2-5.2-4.2c-5.5,0-10.5,5-11.5,10.2
		C663.4,67.9,665,67.9,666.3,67.9L666.3,67.9z"/>
	<path class="st0" d="M689.8,85.2l6.7-47.1c0.1-0.8,0.8-1.5,1.7-1.6h2.4c0.7,0,1.3,0.7,1.2,1.4c0,0.1,0,0.1,0,0.2l-6.7,47.1
		c-0.1,0.8-0.8,1.5-1.6,1.6H691c-0.7,0-1.3-0.6-1.3-1.3C689.7,85.3,689.7,85.2,689.8,85.2z"/>
	<path class="st0" d="M724,52.9c7,0,12.8,6.7,12.8,14.9c0,10.8-7.7,19.8-17.4,19.8c-7,0-12.8-6.8-12.8-15
		C706.6,61.9,714.3,52.9,724,52.9z M731.8,68.2c0-5.8-3.3-10.5-8.2-10.5c-6.2,0-11.9,6.5-11.9,14.5c0,6,3.2,10.7,8.2,10.7
		C726.1,82.8,731.7,76.2,731.8,68.2L731.8,68.2z"/>
	<path class="st0" d="M741.6,102.2l6.6-47c0-0.9,0.8-1.6,1.6-1.6h1.7c0.5,0,0.9,0.2,1.1,1.1l0.3,1.6c2.5-2.3,5.8-3.5,9.2-3.4
		c7,0,11.8,6.8,11.8,14.7c0,11.1-7,19.9-16.9,19.9c-2.7-0.1-5.4-0.9-7.6-2.5l-2.4,17.1c-0.1,0.9-0.8,1.6-1.7,1.7h-2.4
		C742,103.7,741.5,103,741.6,102.2C741.6,102.2,741.6,102.2,741.6,102.2L741.6,102.2z M757,82.8c6.2,0,11.5-6,11.5-14.4
		c0-6-2.6-10.8-7.5-10.8c-4.7,0-8.1,4-8.1,4l-2.7,18.1C752,81.6,754.4,82.7,757,82.8z"/>
	<path class="st0" d="M798.3,52.9c5.9,0,10,3.6,10,8.6c0,6.4-6.4,10.8-17.9,10.8c-1.4,0-2.9-0.1-4.6-0.2c-0.4,5.5,2.6,10.8,8.2,10.8
		c3.2,0,5.4-1.6,7.2-3c0.8-0.6,1.4-0.5,2.1,0.4l0.9,1.4c0.4,0.6,0.7,1.2-0.5,2c-2.9,2.3-6.5,3.7-10.3,3.8c-7.7,0-12.5-6.7-12.5-14.6
		C781,62.1,788,52.9,798.3,52.9z M791,67.9c7.8,0,12.1-2.3,12.1-6.2c0-2.2-1.9-4.2-5.2-4.2c-5.5,0-10.5,5-11.5,10.2
		C788,67.9,789.6,67.9,791,67.9L791,67.9z"/>
	<path class="st0" d="M814.2,85.2l4.2-30c0.1-0.9,0.8-1.6,1.7-1.6h1.4c0.6,0,0.9,0.4,1.1,1.2l0.4,2.4c2.3-2.7,5.7-4.2,9.2-4.2
		c1.5-0.1,3,0.2,4.3,0.8c0.6,0.3,0.9,1.1,0.6,1.7c0,0,0,0.1-0.1,0.1l-1,2.2c-0.4,1-1.1,0.9-1.9,0.6c-1.1-0.4-2.2-0.6-3.4-0.7
		c-3.7,0-7,3.3-8.1,4.7l-3.1,22.9c-0.2,0.9-1,1.5-1.9,1.6h-2.2c-0.7,0-1.3-0.6-1.3-1.3C814.1,85.3,814.1,85.2,814.2,85.2z"/>
	<path class="st0" d="M838.9,84c-0.5-0.5-0.5-1.2-0.1-1.8l1.2-1.8c0.4-0.6,1.1-0.8,1.7-0.4c0.1,0.1,0.2,0.1,0.3,0.2
		c1.9,1.6,4.3,2.6,6.8,2.7c3.1,0,5.5-2.1,5.5-4.8c0-2.3-1.9-4-5.6-6.3c-3.5-2.2-7.2-4.4-7.2-9.1c0-4.2,3-9.7,10.9-9.7
		c2.9-0.1,5.7,0.8,8.1,2.4c0.7,0.6,0.8,1.6,0.3,2.4l-0.7,1.3c-0.4,0.7-1.3,1-2,0.6c-0.1,0-0.2-0.1-0.2-0.2c-1.8-1.2-3.9-1.9-6-1.9
		c-3.6,0-5,2.3-5,4.3c0,2.4,2.2,3.7,4.7,5.3c4.3,2.7,8.1,5.2,8.1,10.3s-3.9,10-11.5,10C844.8,87.4,841.5,86.2,838.9,84L838.9,84z"/>
</g>
</svg>
